<svg xmlns="http://www.w3.org/2000/svg" viewBox="0 0 32 32">
  <defs>
    <linearGradient id="g" x1="0" y1="0" x2="1" y2="1">
      <stop offset="0" stop-color="#465fff"/>
      <stop offset="1" stop-color="#a04dff"/>
    </linearGradient>
  </defs>
  <rect x="0" y="0" width="32" height="32" rx="6" fill="#0e0e10"/>
  <path d="M16 2.4l1.5 2.7 3.05-.4 1.05 2.9 2.95.95-.4 3.05 2.7 1.5-1.45 2.7 1.45 2.7-2.7 1.5.4 3.05-2.95.95-1.05 2.9-3.05-.4L16 29.6l-1.5-2.7-3.05.4-1.05-2.9-2.95-.95.4-3.05-2.7-1.5L6.6 16 5.15 13.3l2.7-1.5-.4-3.05 2.95-.95 1.05-2.9 3.05.4z" fill="url(#g)"/>
  <circle cx="16" cy="16" r="6" fill="#0e0e10"/>
  <circle cx="16" cy="16" r="3.2" fill="#a04dff" opacity="0.92"/>
  <circle cx="16" cy="16" r="1.1" fill="#0e0e10"/>
</svg>
